<svg width="690" height="366" viewBox="0 0 690 366" fill="none" xmlns="http://www.w3.org/2000/svg">
<path d="M356.518 221.01C352.663 238.519 346.191 255.333 337.357 270.849C332.001 280.271 325.775 289.214 318.746 297.548C299.164 320.783 273.349 339.285 242.664 350.214C224.039 356.853 205.043 360.179 186.309 360.527C179.946 360.643 173.627 360.411 167.351 359.853C163.611 359.52 159.893 359.063 156.204 358.498C130.288 354.497 105.589 344.786 83.9564 330.241C53.5252 309.789 29.1309 279.749 15.8902 242.556C2.64223 205.356 2.54802 166.663 13.2015 131.579C28.9932 79.5437 68.3965 35.4224 123.548 15.7823C138.021 10.6295 152.711 7.4625 167.329 6.15799C228.872 0.613847 289.112 27.8418 325.71 77.2318C335.914 90.9943 344.278 106.467 350.322 123.44C361.903 155.966 363.432 189.622 356.518 221.01Z" fill="#3C87D0"/>
<path d="M324.975 221.009C321.119 238.521 314.644 255.334 305.811 270.849C285.512 306.525 252.815 335.366 211.117 350.213C196.654 355.366 181.961 358.531 167.353 359.852C137.383 357.164 108.672 346.856 83.9563 330.244C53.5259 309.79 29.1323 279.751 15.8909 242.554C2.64145 205.357 2.54941 166.661 13.2029 131.577C28.9939 79.5401 68.3958 35.4224 123.55 15.7831C138.021 10.6296 152.714 7.46468 167.329 6.15945C217.369 10.6448 263.875 36.3443 294.167 77.2282C304.367 90.9922 312.739 106.468 318.784 123.442C330.359 155.962 331.887 189.619 324.975 221.009Z" fill="#5F99D7"/>
<path d="M356.519 221.009L321.779 233.383L310.834 237.276C291.702 244.09 270.672 234.104 263.867 214.988L259.205 201.908L253.36 203.989C239.374 208.974 223.997 201.677 219.02 187.691L205.133 148.704C200.157 134.718 207.453 119.341 221.44 114.364L300.411 86.2372L325.712 77.2282C335.911 90.9922 344.275 106.468 350.32 123.442C361.903 155.962 363.431 189.619 356.519 221.009Z" fill="#0AB69F"/>
<path d="M324.975 221.009C324.061 225.18 322.993 229.305 321.779 233.383L310.834 237.277C291.702 244.09 270.672 234.104 263.867 214.988L259.205 201.908L253.36 203.989C239.374 208.974 223.997 201.677 219.02 187.691L205.133 148.704C200.157 134.718 207.453 119.341 221.44 114.364L300.411 86.2372C307.823 97.635 314.022 110.078 318.783 123.442C330.359 155.962 331.887 189.619 324.975 221.009Z" fill="#5DE1C4"/>
<path d="M130.501 313.668L106.153 322.34L83.9564 330.243C53.5259 309.79 29.1324 279.75 15.8909 242.553C2.64945 205.387 2.54943 166.723 13.1797 131.661C13.1877 131.63 13.1949 131.607 13.2029 131.577L35.7382 123.55C49.7247 118.566 65.1012 125.87 70.0786 139.856L73.0507 148.182C77.444 160.517 72.2825 173.935 61.3993 180.341L61.5609 180.809C67.7363 198.136 58.6881 217.192 41.3686 223.368L67.5747 214.035C67.6211 214.02 67.6667 214.005 67.7131 213.989L91.9298 205.364C118.842 195.779 148.436 209.819 158.022 236.732L161.885 247.569C171.469 274.49 157.414 304.083 130.501 313.668Z" fill="#0AB69F"/>
<path d="M106.153 322.34L83.9564 330.243C53.5259 309.79 29.1324 279.75 15.8909 242.553C2.64945 205.387 2.54943 166.723 13.1797 131.661C26.6668 127.867 40.9606 135.132 45.73 148.527L48.6949 156.853C53.0881 169.188 47.9267 182.606 37.0435 189.019L37.2123 189.48C39.0662 194.912 44.4704 216.792 29.5099 227.591L41.3679 223.367L67.5739 214.035C67.6203 214.019 67.666 214.004 67.7124 213.988C94.5946 204.495 124.103 218.535 133.673 245.402L137.529 256.247C147.114 283.161 133.067 312.754 106.153 322.34Z" fill="#5DE1C4"/>
<path d="M211.9 68.372C211.9 80.2843 204.496 91.4524 192.63 95.6768L166.638 104.932C166.584 104.955 166.538 104.978 166.484 104.993L144.625 112.774C129.548 118.143 112.981 110.27 107.612 95.1927C106.468 91.9821 105.922 88.6948 105.922 85.469C105.922 73.5567 113.319 62.3967 125.185 58.1723L147.036 50.3916L173.182 41.0753C188.259 35.7065 204.833 43.5792 210.21 58.6564C211.355 61.8669 211.9 65.1463 211.9 68.372Z" fill="#C8EFFE"/>
<path d="M185.748 77.6891C185.748 89.5478 178.413 100.669 166.638 104.932C166.584 104.955 166.538 104.979 166.484 104.994L144.625 112.775C129.548 118.143 112.981 110.271 107.612 95.1934C106.468 91.9829 105.922 88.6955 105.922 85.4698C105.922 73.5575 113.319 62.3974 125.185 58.173L147.036 50.3923C162.114 45.0236 178.688 52.8883 184.057 67.9655C185.203 71.176 185.748 74.4634 185.748 77.6891Z" fill="#EAF6FF"/>
<path d="M107.909 282.046C119.679 282.046 129.221 272.504 129.221 260.733C129.221 248.962 119.679 239.42 107.909 239.42C96.1379 239.42 86.5958 248.962 86.5958 260.733C86.5958 272.504 96.1379 282.046 107.909 282.046Z" fill="#FEE903"/>
<path d="M261.408 172.485C272.844 172.485 282.115 163.214 282.115 151.778C282.115 140.342 272.844 131.071 261.408 131.071C249.972 131.071 240.701 140.342 240.701 151.778C240.701 163.214 249.972 172.485 261.408 172.485Z" fill="#FEE903"/>
<path d="M261.408 61.1733L338.575 34.1839L261.408 7.19363V61.1733Z" fill="#FD4755"/>
<path d="M318.746 297.548C299.164 320.783 273.349 339.285 242.664 350.214C224.039 356.853 205.043 360.179 186.309 360.527C179.946 360.643 173.627 360.411 167.351 359.853C166.307 359.759 165.271 359.657 164.234 359.541C161.545 359.259 158.864 358.904 156.204 358.498C159.828 341.952 171.641 327.603 188.781 321.5L227.075 307.861L272.899 291.533C279.937 289.026 287.155 288.17 294.141 288.757C303.005 289.497 311.491 292.562 318.746 297.548Z" fill="#C8EFFE"/>
<path d="M294.141 288.757C273.9 316.108 245.585 337.937 211.117 350.214C196.651 355.367 181.961 358.534 167.351 359.853C166.307 359.759 165.271 359.657 164.234 359.541C161.545 359.259 158.871 358.903 156.204 358.498C159.828 341.952 171.641 327.603 188.781 321.5L227.075 307.861L272.899 291.533C279.937 289.026 287.155 288.17 294.141 288.757Z" fill="#EAF6FF"/>
<path d="M355.445 121.618C349.39 104.618 340.85 88.4539 330.067 73.9754C323.783 65.4997 316.73 57.5603 309.043 50.2725L340.371 39.3154C345.112 37.6565 345.118 30.7129 340.372 29.054L263.205 2.0638C259.736 0.846982 255.973 3.51035 255.973 7.19195V15.1965C236.56 6.74262 216.055 1.76448 194.898 0.387506C170.018 -1.23081 145.403 2.22468 121.727 10.6605C94.4417 20.3762 70.5482 35.8614 50.7118 56.6871C45.8764 61.763 53.7491 69.2603 58.583 64.1851C77.2345 44.6037 99.7061 30.0418 125.374 20.9016C168.446 5.5548 214.688 7.78333 255.974 27.119V96.2897L219.617 109.238C202.83 115.217 194.037 133.738 200.015 150.526C200.186 151.007 200.358 151.488 200.529 151.97C196.622 153.088 190.705 154.518 192.198 159.994C192.759 162.051 194.481 163.612 196.592 163.946C199.069 164.34 201.834 162.889 204.183 162.23L213.899 189.51C216.795 197.642 222.685 204.159 230.483 207.861C238.282 211.564 247.054 212.007 255.186 209.111L255.913 208.853L258.745 216.808C262.526 227.424 270.217 235.934 280.4 240.767C290.473 245.549 302.154 246.138 312.659 242.398L348.78 229.533C344.986 243.011 339.573 255.966 332.632 268.159C328.171 275.999 323.121 283.433 317.548 290.408C303.452 282.471 286.318 280.979 271.075 286.411L186.957 316.379C170.193 322.347 157.515 335.588 152.231 352.337C132.628 348.766 113.772 341.786 96.3506 331.599L132.325 318.788C146.71 313.664 158.24 303.245 164.789 289.449C171.339 275.653 172.125 260.133 167.001 245.748L163.141 234.909C163.141 234.909 163.141 234.909 163.141 234.909C158.773 222.645 150.547 212.47 139.67 205.675C141.278 203.314 140.791 200.083 138.5 198.317C136.122 196.484 132.709 196.926 130.877 199.303C130.511 199.778 130.153 200.262 129.793 200.742C117.044 195.821 103.113 195.606 90.1042 200.239L64.8584 209.23C68.8596 201.179 70.0808 191.76 67.7653 182.555C78.4883 174.092 82.8606 159.53 78.168 146.355L75.2024 138.027C69.2234 121.24 50.7024 112.447 33.9148 118.426L21.9525 122.686C27.2299 108.59 34.3083 95.27 43.0753 82.9714C47.1447 77.2627 38.2929 70.954 34.2228 76.6612C22.6453 92.9037 13.8334 110.819 8.02908 129.91C-6.11683 173.859 -1.07927 223.322 19.2717 264.461C37.5058 301.322 68.2364 331.151 105.421 348.656C147.083 368.27 195.478 371.268 239.285 357.1C281.813 343.347 318.388 314.043 340.971 275.458C365.041 234.334 372.183 184.523 360.514 138.311C359.09 132.671 357.397 127.098 355.445 121.618ZM167.839 354.438C166.275 354.297 164.713 354.133 163.154 353.95C167.711 341.234 177.646 331.233 190.605 326.619L274.724 296.65C286.328 292.516 299.321 293.334 310.325 298.868C282.471 329.44 243.763 349.241 202.679 353.99C191.12 355.327 179.428 355.467 167.839 354.438ZM37.5609 128.667C48.7028 124.699 60.9934 130.534 64.9606 141.675L67.9262 150.003C71.3693 159.67 67.4623 170.46 58.6366 175.659C56.39 176.983 55.4 179.715 56.2769 182.17L56.4407 182.629C61.5993 197.112 54.0122 213.092 39.5285 218.25C36.7007 219.257 35.2244 222.366 36.2318 225.194C37.2399 228.022 40.3504 229.498 43.1761 228.491L93.7525 210.479C103.435 207.031 113.75 206.898 123.372 209.991C120.927 213.814 118.629 217.777 116.499 221.856C115.109 224.517 116.139 227.8 118.8 229.19C119.603 229.61 120.464 229.809 121.312 229.809C123.271 229.809 125.164 228.746 126.134 226.889C128.362 222.625 130.787 218.504 133.377 214.551C142.445 220.052 149.295 228.427 152.902 238.555L156.762 249.394C160.912 261.043 160.276 273.612 154.971 284.785C149.666 295.958 140.329 304.396 128.679 308.545L84.7492 324.19C62.9408 309.05 44.7922 288.885 32.0979 265.564C18.1999 240.032 10.7961 211.019 10.9657 181.942C11.057 166.334 13.342 150.761 17.6418 135.76L37.5609 128.667ZM266.846 14.8537L322.112 34.1836L296.843 43.0224C296.831 43.0267 296.818 43.0282 296.805 43.0325L266.846 53.5142V23.7005V14.8537ZM266.844 65.0308L297.415 54.3389C304.428 60.5643 310.915 67.3652 316.803 74.6255L266.845 92.4182V65.0308H266.844ZM309.011 232.156C301.126 234.964 292.621 234.534 285.061 230.946C277.501 227.358 271.793 221.041 268.986 213.16L264.33 200.085C262.183 194.056 255.585 197.429 251.539 198.87C246.141 200.793 240.321 200.496 235.146 198.04C229.97 195.584 226.063 191.259 224.14 185.861L214.819 159.69C217.617 159.135 220.453 158.651 223.323 158.252C226.297 157.839 228.372 155.095 227.959 152.12C227.545 149.146 224.806 147.073 221.827 147.485C218.212 147.987 214.645 148.612 211.135 149.346L210.256 146.878C206.288 135.737 212.123 123.447 223.264 119.479L255.973 107.829V126.206C244.158 128.715 235.267 139.225 235.267 151.775C235.267 166.191 246.994 177.918 261.408 177.918C275.822 177.918 287.55 166.19 287.55 151.775C287.55 139.225 278.657 128.715 266.844 126.206V103.958L323.688 83.7128C345.041 113.979 356.25 151.082 355.134 188.112C354.843 197.78 353.744 207.424 351.829 216.906L309.011 232.156ZM261.409 157.211C264.411 157.211 266.844 154.778 266.844 151.775V137.522C272.586 139.72 276.68 145.272 276.68 151.775C276.68 160.196 269.83 167.047 261.409 167.047C252.988 167.047 246.138 160.196 246.138 151.775C246.138 145.271 250.233 139.719 255.974 137.522V151.775C255.974 154.778 258.406 157.211 261.409 157.211Z" fill="black"/>
<path d="M193.27 89.5246C186.97 92.5981 191.742 102.373 198.039 99.2931C213.78 91.6089 221.213 73.3545 215.328 56.8322C209.04 39.1765 189.052 29.6572 171.359 35.9572L123.366 53.0499C105.71 59.3376 96.1897 79.3255 102.491 97.019C108.779 114.673 128.764 124.197 146.461 117.893L172.963 108.45C179.567 106.098 175.917 95.8558 169.314 98.2104L142.813 107.653C130.708 111.965 117.034 105.449 112.732 93.3714C108.421 81.2671 114.935 67.5922 127.014 63.291L175.007 46.1983C187.112 41.8862 200.787 48.4015 205.088 60.4798C209.113 71.7826 204.033 84.2696 193.27 89.5246Z" fill="black"/>
<path d="M107.909 287.481C122.658 287.481 134.657 275.482 134.657 260.733C134.657 245.984 122.658 233.985 107.909 233.985C93.1597 233.985 81.1604 245.984 81.1604 260.733C81.1604 275.482 93.1597 287.481 107.909 287.481ZM106.953 244.887C106.604 245.352 106.321 245.878 106.131 246.461C103.535 254.427 102.598 259.555 102.559 259.768C102.028 262.72 103.989 265.542 106.94 266.077C107.267 266.136 107.593 266.165 107.914 266.165C110.49 266.165 112.778 264.325 113.257 261.702C113.265 261.656 114.123 257.021 116.467 249.828C116.718 249.056 116.782 248.271 116.693 247.514C120.965 250.363 123.787 255.223 123.787 260.731C123.787 269.486 116.664 276.609 107.909 276.609C99.1539 276.609 92.0313 269.486 92.0313 260.731C92.0313 252.299 98.6415 245.383 106.953 244.887Z" fill="black"/>
<path d="M171.163 164.172C163.369 168.565 155.988 173.794 149.224 179.717C143.985 184.306 151.064 192.556 156.386 187.895C162.588 182.464 169.356 177.669 176.5 173.643C179.115 172.169 180.04 168.854 178.567 166.239C177.094 163.623 173.78 162.701 171.163 164.172Z" fill="black"/>
<path d="M235.731 274.841C236.336 274.841 236.952 274.739 237.555 274.524L261.872 265.859C264.699 264.852 266.175 261.742 265.167 258.915C264.159 256.086 261.049 254.61 258.223 255.619L233.906 264.284C228.324 266.273 229.78 274.841 235.731 274.841Z" fill="black"/>
<path d="M198.822 266.163C199.428 266.163 200.044 266.061 200.647 265.846L224.964 257.182C227.791 256.174 229.267 253.065 228.259 250.237C227.251 247.41 224.139 245.933 221.315 246.942L196.998 255.606C191.416 257.595 192.872 266.163 198.822 266.163Z" fill="black"/>
<g clip-path="url(#clip0)">
<path d="M498.394 175.511L505.178 173.162C509.448 171.682 511.719 167.004 510.24 162.733C509.523 160.664 508.044 158.999 506.073 158.042C504.595 157.324 502.972 157.071 501.38 157.293L501.986 153.596L509.33 151.051C513.601 149.571 515.872 144.893 514.392 140.623C513.03 136.69 508.956 134.462 504.985 135.286L508.673 112.775C512.107 111.658 515.412 110.553 518.549 109.467C527.59 106.334 535.665 102.294 541.289 98.0894C550.793 90.9825 551.203 84.9166 549.874 81.0795C548.546 77.2429 544.47 72.732 532.606 73.0269C525.588 73.2019 516.743 75.023 507.702 78.156C504.565 79.2428 501.284 80.4178 497.896 81.6644L481.072 66.2589C484.702 64.4513 486.524 60.1799 485.162 56.2474C483.682 51.9773 479.005 49.7053 474.734 51.1856L467.389 53.7302L464.625 51.1996C466.014 50.3883 467.132 49.1853 467.85 47.7068C468.806 45.7374 468.938 43.5124 468.221 41.4446C466.743 37.1738 462.063 34.9025 457.793 36.3828L451.011 38.7324L431.102 20.5028C430.392 19.8542 429.386 19.6456 428.479 19.9608L419.58 23.0438C418.086 23.5602 417.385 25.3432 418.125 26.7392L455.982 98.2252C435.496 106.727 415.487 115.482 401.299 121.79L387.251 106.762C386.545 106.007 385.461 105.738 384.484 106.076L373.936 109.73C372.572 110.204 371.849 111.694 372.321 113.058L390.59 165.792C391.056 167.139 392.571 167.875 393.919 167.408L404.464 163.755C405.441 163.416 406.128 162.534 406.215 161.503L407.956 141.007C423.006 137.186 444.142 131.687 465.499 125.692L467.069 134.331C467.348 135.864 468.957 136.826 470.441 136.354C471.677 135.961 472.449 134.67 472.217 133.396L470.556 124.264C481.745 121.086 492.867 117.798 503.077 114.569L489.119 199.766L484.577 201.339L474.312 144.912C474.054 143.491 472.692 142.549 471.271 142.807C469.848 143.066 468.905 144.428 469.165 145.85L479.976 205.279C480.259 206.833 481.913 207.8 483.406 207.282L492.305 204.199C493.212 203.886 493.875 203.098 494.031 202.15L498.394 175.511ZM476.447 56.13C477.974 55.601 479.69 56.434 480.219 57.9609C480.754 59.5059 479.933 61.1976 478.388 61.7329L476.749 62.3007L471.777 57.747L476.447 56.13ZM459.506 41.3271C461.05 40.7913 462.743 41.6131 463.278 43.1581C463.813 44.7031 462.992 46.3948 461.447 46.93L460.369 47.3023L455.398 42.7505L459.506 41.3271ZM424.176 26.9873L428.718 25.4147L492.39 83.7169C482.37 87.4972 471.598 91.7944 460.839 96.2185L424.176 26.9873ZM384.59 111.577L396.244 124.044C390.572 126.579 386.209 128.553 383.631 129.723L378.121 113.817L384.59 111.577ZM385.352 134.689C398.361 128.773 466.977 97.8012 509.415 83.0992C517.836 80.1811 526.337 78.4174 532.736 78.2581C537.541 78.1375 543.557 78.8273 544.931 82.7929C546.305 86.7585 542.004 91.0215 538.155 93.8998C533.028 97.7335 525.257 101.605 516.836 104.522C474.401 119.223 401.328 137.337 387.447 140.737L385.352 134.689ZM401.146 159.367L394.678 161.608L389.168 145.702C391.915 145.028 396.566 143.88 402.59 142.363L401.146 159.367ZM501.524 162.615C503.069 162.08 504.761 162.901 505.296 164.446C505.831 165.991 505.01 167.682 503.465 168.218L499.356 169.641L500.446 162.988L501.524 162.615ZM505.677 140.504C507.221 139.968 508.913 140.791 509.449 142.335C509.978 143.862 509.145 145.578 507.618 146.107L502.947 147.725L504.037 141.071L505.677 140.504Z" fill="black"/>
<path d="M469.742 206.305L439.911 216.639C438.638 217.081 437.894 218.468 438.235 219.771C438.617 221.227 440.202 222.076 441.624 221.583L471.454 211.249C472.82 210.776 473.543 209.286 473.07 207.92C472.598 206.556 471.107 205.833 469.742 206.305Z" fill="black"/>
<path d="M466.287 196.333C467.652 195.861 468.376 194.37 467.902 193.005C467.43 191.64 465.939 190.916 464.575 191.39L445.93 197.848C444.658 198.29 443.914 199.677 444.255 200.981C444.636 202.436 446.221 203.285 447.643 202.792L466.287 196.333Z" fill="black"/>
<path d="M464.849 180.127C466.215 179.653 466.938 178.163 466.465 176.798C465.991 175.432 464.502 174.709 463.136 175.182L450.085 179.703C448.813 180.144 448.068 181.533 448.41 182.837C448.791 184.291 450.376 185.14 451.798 184.648L464.849 180.127Z" fill="black"/>
<path d="M410.455 30.1904C409.982 28.8257 408.491 28.1021 407.127 28.5747L377.296 38.9102C375.93 39.3822 375.207 40.8729 375.68 42.2376C376.147 43.5836 377.662 44.319 379.009 43.8533L408.84 33.519C410.204 33.0452 410.927 31.5557 410.455 30.1904Z" fill="black"/>
<path d="M415.622 45.1061C415.149 43.7402 413.659 43.0172 412.294 43.4909L393.649 49.9501C392.376 50.3901 391.633 51.7782 391.974 53.0814C392.356 54.5368 393.94 55.3853 395.362 54.8927L414.006 48.4347C415.372 47.9615 416.095 46.4708 415.622 45.1061Z" fill="black"/>
<path d="M406.523 64.9636C406.991 66.3102 408.504 67.045 409.852 66.5793L422.903 62.058C424.267 61.5843 424.99 60.0947 424.518 58.7294C424.045 57.3648 422.555 56.6417 421.19 57.1137L408.139 61.635C406.774 62.1088 406.051 63.5983 406.523 64.9636Z" fill="black"/>
</g>
<rect x="314" y="233.957" width="213" height="111" rx="15" fill="#5DE1C4"/>
<path d="M365.92 321.917C356.64 321.917 349.408 319.325 344.224 314.141C339.04 308.893 336.448 301.405 336.448 291.677V253.757H348.928V291.197C348.928 304.381 354.624 310.973 366.016 310.973C377.344 310.973 383.008 304.381 383.008 291.197V253.757H395.296V291.677C395.296 301.405 392.704 308.893 387.52 314.141C382.4 319.325 375.2 321.917 365.92 321.917ZM440.71 269.117C447.174 269.117 452.358 271.005 456.262 274.781C460.166 278.557 462.118 284.157 462.118 291.581V320.957H450.118V293.117C450.118 288.637 449.062 285.277 446.95 283.037C444.838 280.733 441.83 279.581 437.926 279.581C433.51 279.581 430.022 280.925 427.462 283.613C424.902 286.237 423.622 290.045 423.622 295.037V320.957H411.622V269.693H423.046V276.317C425.03 273.949 427.526 272.157 430.534 270.941C433.542 269.725 436.934 269.117 440.71 269.117ZM477.341 269.693H489.341V320.957H477.341V269.693ZM483.389 261.245C481.213 261.245 479.389 260.573 477.917 259.229C476.445 257.821 475.709 256.093 475.709 254.045C475.709 251.997 476.445 250.301 477.917 248.957C479.389 247.549 481.213 246.845 483.389 246.845C485.565 246.845 487.389 247.517 488.861 248.861C490.333 250.141 491.069 251.773 491.069 253.757C491.069 255.869 490.333 257.661 488.861 259.133C487.453 260.541 485.629 261.245 483.389 261.245Z" fill="white"/>
<path d="M491.656 266.317H469.384V255.757H526.408V266.317H504.136V322.957H491.656V266.317ZM552.412 323.629C547.228 323.629 542.556 322.509 538.396 320.269C534.236 318.029 530.972 314.925 528.604 310.957C526.3 306.925 525.148 302.381 525.148 297.325C525.148 292.269 526.3 287.757 528.604 283.789C530.972 279.821 534.236 276.717 538.396 274.477C542.556 272.237 547.228 271.117 552.412 271.117C557.66 271.117 562.364 272.237 566.524 274.477C570.684 276.717 573.916 279.821 576.22 283.789C578.588 287.757 579.772 292.269 579.772 297.325C579.772 302.381 578.588 306.925 576.22 310.957C573.916 314.925 570.684 318.029 566.524 320.269C562.364 322.509 557.66 323.629 552.412 323.629ZM552.412 313.357C556.828 313.357 560.476 311.885 563.356 308.941C566.236 305.997 567.676 302.125 567.676 297.325C567.676 292.525 566.236 288.653 563.356 285.709C560.476 282.765 556.828 281.293 552.412 281.293C547.996 281.293 544.348 282.765 541.468 285.709C538.652 288.653 537.244 292.525 537.244 297.325C537.244 302.125 538.652 305.997 541.468 308.941C544.348 311.885 547.996 313.357 552.412 313.357ZM640.879 271.693V322.957H629.455V316.429C627.535 318.733 625.135 320.525 622.255 321.805C619.375 323.021 616.271 323.629 612.943 323.629C606.095 323.629 600.687 321.741 596.719 317.965C592.815 314.125 590.863 308.461 590.863 300.973V271.693H602.863V299.341C602.863 303.949 603.887 307.405 605.935 309.709C608.047 311.949 611.023 313.069 614.863 313.069C619.151 313.069 622.543 311.757 625.039 309.133C627.599 306.445 628.879 302.605 628.879 297.613V271.693H640.879ZM668.015 279.181C671.471 273.805 677.551 271.117 686.255 271.117V282.541C685.231 282.349 684.303 282.253 683.471 282.253C678.799 282.253 675.151 283.629 672.527 286.381C669.903 289.069 668.591 292.973 668.591 298.093V322.957H656.591V271.693H668.015V279.181Z" fill="#FD4755"/>
<defs>
<clipPath id="clip0">
<rect width="177.45" height="177.45" fill="white" transform="translate(394.416 1.88419) rotate(25.8923)"/>
</clipPath>
</defs>
</svg>
